<?xml version="1.0" standalone="no"?>
<!DOCTYPE svg PUBLIC "-//W3C//DTD SVG 20010904//EN"
 "http://www.w3.org/TR/2001/REC-SVG-20010904/DTD/svg10.dtd">
<svg version="1.0" xmlns="http://www.w3.org/2000/svg"
 width="391.000000pt" height="290.000000pt" viewBox="0 0 391.000000 290.000000"
 preserveAspectRatio="xMidYMid meet">

<g transform="translate(0.000000,290.000000) scale(0.100000,-0.100000)"
fill="#000000" stroke="none">
<path d="M1821 2684 c-33 -25 -73 -65 -88 -89 -27 -43 -43 -56 -43 -35 0 24
-32 6 -57 -32 -25 -37 -28 -50 -27 -122 0 -86 24 -155 65 -192 10 -9 19 -21
19 -26 0 -11 -59 19 -89 46 l-24 21 12 -23 c7 -13 28 -30 47 -39 l35 -17 -26
-13 c-24 -13 -61 -70 -51 -80 2 -3 12 9 20 26 9 17 25 35 36 41 18 9 17 6 -5
-26 -14 -20 -25 -50 -25 -66 0 -40 24 -92 50 -111 14 -10 20 -23 18 -38 -3
-20 -13 -25 -70 -37 l-68 -15 0 -56 c1 -31 9 -78 18 -106 16 -48 19 -50 65
-59 47 -9 47 -9 47 -50 0 -23 -11 -68 -25 -101 -13 -33 -25 -70 -25 -82 l0
-23 22 22 c21 21 22 21 29 2 4 -10 11 -41 14 -67 5 -37 10 -47 21 -43 10 4 21
-9 36 -39 12 -24 25 -42 29 -39 16 9 20 -18 6 -34 -14 -16 -249 -384 -332
-519 -21 -35 -41 -63 -45 -63 -3 0 -15 -7 -26 -16 -19 -15 -19 -15 1 -10 44
11 105 14 110 5 4 -5 12 -9 18 -9 7 0 -1 12 -17 26 -22 20 -31 22 -37 13 -4
-8 -11 -11 -14 -7 -4 4 37 74 90 157 87 135 115 170 115 142 0 -4 18 -29 41
-55 37 -41 40 -49 28 -65 -8 -11 -63 -79 -124 -152 -74 -90 -111 -128 -113
-116 -4 21 -22 23 -22 2 0 -16 -71 -54 -102 -55 -42 0 -29 42 14 45 24 2 38
25 15 25 -9 0 -18 9 -22 19 -3 11 -22 34 -41 50 -40 35 -70 39 -154 16 -30 -8
-64 -12 -76 -9 -31 8 -68 -30 -59 -59 3 -12 9 -41 12 -64 5 -38 8 -42 37 -45
23 -2 32 -9 34 -24 3 -20 0 -21 -45 -13 -26 4 -72 8 -100 8 -44 1 -55 5 -68
24 -16 26 -43 242 -31 254 4 4 127 10 274 14 147 4 275 8 285 8 23 1 23 25 -8
410 -44 542 -64 734 -80 750 -13 13 -51 11 -307 -18 -310 -35 -570 -72 -678
-96 l-65 -15 65 6 c36 3 139 16 230 29 278 40 719 91 710 82 -6 -6 -139 -25
-500 -72 -321 -42 -378 -51 -443 -76 -26 -10 -47 -16 -47 -13 0 4 -6 2 -12 -3
-7 -6 -25 -13 -40 -17 -25 -6 -28 -11 -30 -49 l-1 -42 -8 45 c-14 79 0 -172
22 -419 24 -258 25 -249 -41 -252 -19 -1 14 -5 75 -10 87 -6 112 -11 122 -25
20 -27 19 -504 -1 -504 -29 0 -120 61 -160 107 -26 31 -66 149 -54 161 6 6 6
12 -1 16 -20 13 -31 -3 -21 -29 6 -16 6 -27 -1 -31 -7 -4 -7 -10 0 -18 6 -7 8
-16 4 -19 -3 -4 -1 -7 6 -7 8 0 9 -5 1 -19 -8 -16 -6 -22 7 -30 10 -6 13 -11
6 -11 -12 0 -9 -62 4 -83 3 -5 0 -13 -8 -17 -10 -7 -10 -12 -1 -22 8 -11 9
-17 0 -26 -8 -8 -6 -15 6 -27 20 -20 20 -20 -3 -22 -16 -1 -21 7 -26 45 -10
72 -15 74 -12 4 2 -53 0 -62 -15 -62 -14 0 -18 -8 -18 -33 l0 -33 118 -12 c64
-7 136 -12 159 -12 55 0 73 -8 73 -33 0 -11 3 -17 6 -14 4 4 19 -2 33 -12 15
-11 40 -21 56 -23 21 -2 31 -9 33 -23 4 -28 56 -49 73 -29 6 8 17 14 24 14 7
0 16 8 19 17 6 15 8 15 16 3 7 -10 10 -11 10 -2 0 6 8 12 18 12 14 0 15 2 2
10 -18 11 -9 15 70 29 31 5 62 11 69 13 8 2 17 -8 21 -22 7 -23 7 -22 11 10
l4 35 922 3 922 2 3 -32 c2 -18 9 -34 16 -34 6 -1 42 -2 78 -3 40 -1 63 -5 59
-11 -3 -5 2 -10 12 -11 16 0 16 -1 -2 -8 -18 -7 -17 -9 12 -24 36 -19 63 -22
63 -7 0 6 11 10 25 10 13 0 29 8 34 18 9 15 12 15 21 2 6 -9 10 -10 10 -3 0 6
8 14 18 16 12 3 11 5 -6 6 -39 2 -14 21 28 21 51 0 70 8 70 30 0 29 19 34 29
8 l10 -23 0 23 c1 18 7 22 31 22 40 0 38 18 -2 22 l-33 4 30 13 c17 7 86 14
160 17 159 5 159 5 166 16 3 5 44 13 90 17 77 8 69 8 -83 10 -161 1 -168 2
-168 21 0 17 7 20 49 20 31 0 53 -5 61 -15 16 -19 44 -19 60 -1 6 8 21 17 33
19 19 4 18 4 -5 6 -14 0 -28 6 -30 11 -2 6 -13 12 -26 13 -24 1 -18 12 13 21
11 3 -46 3 -127 1 -140 -4 -148 -3 -148 15 0 15 -10 20 -57 24 -32 3 -115 13
-184 22 -69 9 -140 13 -158 9 -20 -4 -31 -3 -31 5 0 6 4 9 9 6 19 -12 162 276
186 376 4 15 14 29 23 32 49 14 362 59 368 53 7 -7 -80 -459 -97 -506 -7 -18
-7 -23 0 -16 21 20 121 454 121 522 0 30 -18 30 -202 -2 -210 -36 -209 -36
-218 -59 -39 -96 -144 -328 -151 -332 -5 -3 -6 35 -3 83 10 144 -23 531 -62
728 -35 175 -124 265 -261 265 -39 0 -44 2 -38 18 19 48 28 121 19 153 -8 28
-6 41 13 74 46 80 69 271 34 283 -6 2 -11 10 -11 18 0 8 6 11 17 7 11 -4 14
-3 9 6 -5 7 -18 16 -30 21 -19 8 -18 9 9 10 l30 1 -25 14 c-18 10 -29 10 -38
3 -9 -8 -16 -8 -24 0 -7 7 3 18 38 36 27 14 41 25 31 26 -10 0 -35 -9 -57 -20
-51 -26 -58 -25 -33 3 24 26 53 80 53 99 0 7 -12 -6 -26 -29 -14 -24 -27 -43
-28 -43 -2 0 -2 21 0 48 3 35 2 42 -5 27 -5 -11 -10 -32 -10 -47 -1 -38 -17
-35 -31 6 -19 58 -85 152 -125 176 -20 13 -55 24 -77 26 -22 1 -47 9 -56 17
-48 41 -39 22 13 -29 82 -80 103 -110 35 -51 -76 65 -105 73 -185 52 -81 -22
-158 -17 -188 14 -18 18 -22 33 -22 91 0 39 -3 70 -7 70 -3 0 -33 -20 -67 -46z
m-160 -163 c-6 -11 -18 -44 -25 -73 -13 -49 -15 -50 -15 -18 -1 36 35 128 45
117 3 -3 1 -14 -5 -26z m669 19 c4 0 18 -16 29 -36 l22 -36 -41 32 c-46 37
-62 57 -36 47 10 -4 21 -7 26 -7z m267 -350 c16 -33 6 -40 -16 -11 -13 17 -25
22 -40 18 -22 -5 -30 8 -8 17 25 10 52 0 64 -24z m-341 -15 l91 0 -38 -44
c-22 -24 -39 -49 -39 -55 0 -5 14 5 30 24 28 31 30 32 23 10 -20 -64 -6 -173
29 -222 9 -13 10 -20 2 -28 -16 -16 -86 -1 -91 19 -5 18 -141 65 -223 77 -25
4 -51 11 -58 17 -10 8 -16 7 -23 -4 -7 -11 -9 -11 -9 4 0 9 -4 17 -10 17 -16
0 -12 -47 6 -64 9 -10 33 -16 60 -16 24 0 44 -4 44 -10 0 -5 -13 -10 -29 -10
-54 0 -94 -13 -98 -32 -4 -12 -15 -18 -34 -18 -16 0 -32 -1 -36 -2 -5 -2 -9 7
-11 20 -2 15 -11 22 -25 23 -21 1 -21 2 -2 6 18 5 35 20 35 33 0 15 -21 34
-27 25 -9 -11 -115 -57 -120 -51 -8 8 30 162 48 198 l19 38 73 0 c86 0 133 12
160 41 18 19 25 20 91 12 39 -4 112 -8 162 -8z m-7 -358 c-1 -72 -6 -66 -12
15 -2 31 0 55 5 52 4 -3 8 -33 7 -67z m275 52 c52 -24 58 -107 15 -197 -23
-47 -61 -72 -109 -72 -26 0 -33 6 -46 36 -29 70 3 190 60 225 36 22 46 23 80
8z m-316 -98 c-2 -38 -7 -73 -11 -78 -10 -10 -140 -17 -171 -9 -16 4 -28 17
-35 38 -16 51 -25 118 -15 119 50 7 221 13 228 7 4 -3 7 -38 4 -77z m-434 63
c12 -5 16 -21 16 -73 0 -63 -2 -69 -25 -79 -14 -7 -37 -12 -50 -12 -24 0 -25
3 -25 63 0 90 7 107 40 107 16 0 35 -3 44 -6z m-94 -14 c0 -12 -17 -12 -45 0
-17 7 -15 9 13 9 17 1 32 -3 32 -9z m-68 -32 c3 -29 7 -33 36 -36 30 -3 32 -6
32 -43 0 -37 -2 -39 -30 -39 -18 0 -33 7 -38 18 -12 22 -21 132 -11 132 4 0 9
-15 11 -32z m308 -15 c1 -10 7 -36 15 -58 9 -24 11 -41 5 -43 -6 -2 0 -12 12
-21 l22 -18 -41 -27 c-56 -37 -138 -46 -172 -19 -34 28 -23 63 28 91 32 18 42
30 47 60 9 51 10 52 50 52 26 0 34 -4 34 -17z m387 -58 c-1 -50 -6 -76 -15
-80 -10 -3 -10 -9 0 -24 9 -15 9 -27 -3 -56 -18 -48 -42 -64 -68 -48 -15 9
-21 9 -23 1 -2 -6 -24 10 -48 36 -51 55 -87 76 -130 76 -17 0 -30 5 -30 13 0
9 31 12 120 12 75 0 123 4 130 11 7 7 14 39 17 73 5 55 8 61 29 61 22 0 22 -3
21 -75z m-70 -17 c-2 -13 -4 -5 -4 17 -1 22 1 32 4 23 2 -10 2 -28 0 -40z
m-997 17 c0 -8 -4 -15 -8 -15 -5 0 -9 7 -9 15 0 8 4 15 9 15 4 0 8 -7 8 -15z
m-30 -11 c0 -2 -7 -4 -15 -4 -8 0 -15 4 -15 10 0 5 7 7 15 4 8 -4 15 -8 15
-10z m1454 -78 c69 -21 111 -58 145 -129 50 -103 86 -364 95 -687 6 -199 0
-158 -14 89 -11 202 -30 358 -54 451 -8 30 -19 73 -25 96 -15 58 -64 120 -113
145 -24 12 -70 24 -105 27 -34 2 -60 9 -57 13 8 14 75 11 128 -5z m-936 -21
c10 -21 9 -26 -8 -35 -28 -15 -30 -13 -30 25 0 42 21 47 38 10z m-1491 -117
c-2 -13 -4 -3 -4 22 0 25 2 35 4 23 2 -13 2 -33 0 -45z m1643 7 c16 -8 92 -23
170 -32 116 -14 140 -20 138 -33 -4 -21 -52 -25 -71 -6 -9 9 -18 16 -21 16
-11 0 -6 -76 6 -88 17 -17 3 -25 -21 -12 -15 8 -21 8 -21 0 0 -6 -4 -8 -10 -5
-5 3 -10 -2 -10 -11 0 -16 -1 -16 -15 2 -8 11 -15 14 -15 7 0 -18 -20 -16 -20
1 0 7 -9 25 -21 40 -11 14 -17 30 -14 36 4 6 -18 10 -60 10 -37 0 -64 -4 -61
-9 3 -5 -2 -29 -12 -52 l-19 -43 -16 25 c-9 14 -20 46 -23 72 -6 39 -4 47 9
47 9 0 29 11 44 25 34 29 28 28 63 10z m-1633 -117 c-2 -13 -4 -5 -4 17 -1 22
1 32 4 23 2 -10 2 -28 0 -40z m2112 15 c-1 -5 -1 -26 1 -48 1 -30 3 -35 9 -21
5 14 10 16 15 8 10 -17 -64 -168 -109 -219 -19 -23 -77 -68 -127 -100 -50 -31
-85 -59 -79 -61 17 -6 147 74 198 121 48 44 104 137 124 205 7 23 13 42 15 42
2 0 16 -5 31 -12 58 -25 132 -80 158 -118 33 -48 75 -185 75 -246 l0 -43 -102
5 c-57 3 -108 7 -114 9 -6 2 -12 32 -13 68 -1 35 -5 77 -10 93 l-8 29 -7 -38
c-10 -55 3 -175 20 -179 11 -2 15 -30 17 -117 l3 -113 -115 8 c-142 11 -409
12 -474 2 l-48 -8 6 48 c4 26 14 80 22 121 8 40 11 77 6 82 -5 5 -28 -17 -53
-48 l-44 -57 -53 60 c-29 32 -53 62 -53 67 0 9 128 216 145 235 10 11 19 10
51 -7 21 -12 48 -21 60 -21 15 0 32 -17 58 -60 35 -56 91 -109 103 -97 3 3
-12 20 -32 38 -33 29 -85 99 -85 114 0 3 14 5 30 5 47 0 148 38 207 77 62 41
141 125 149 159 5 21 26 36 23 17z m-2102 -130 c-3 -10 -5 -2 -5 17 0 19 2 27
5 18 2 -10 2 -26 0 -35z m10 -130 c-3 -10 -5 -2 -5 17 0 19 2 27 5 18 2 -10 2
-26 0 -35z m1162 -360 c1 -24 -3 -43 -7 -43 -5 0 -9 6 -9 13 0 6 -3 77 -6 157
l-6 145 14 -115 c8 -63 14 -134 14 -157z m1198 90 c10 -26 -13 -180 -39 -258
l-23 -70 -75 0 c-41 1 -137 4 -214 9 -126 7 -139 10 -144 28 -4 17 -6 16 -19
-9 -7 -15 -36 -43 -63 -62 -44 -29 -52 -32 -67 -20 -14 12 -16 12 -11 -1 2 -8
14 -16 25 -18 22 -3 64 -42 46 -42 -6 0 -25 10 -44 23 -29 20 -34 29 -33 62 2
36 0 37 -12 20 -8 -10 -14 -27 -14 -37 0 -21 -10 -23 -35 -4 -18 13 -18 26 0
69 6 14 2 17 -22 17 -44 0 -92 -19 -146 -57 -26 -18 -52 -31 -57 -28 -30 19
46 97 140 143 50 24 67 27 195 31 77 2 203 -1 280 -8 232 -18 268 -20 259 -11
-5 5 -22 10 -39 12 l-30 3 -3 113 -3 112 71 0 c57 0 72 -3 77 -17z m-792 -10
c-10 -28 -23 -104 -26 -158 -3 -48 -5 -51 -54 -83 -57 -38 -95 -79 -95 -104 0
-15 -9 -18 -46 -18 -40 0 -50 -5 -83 -40 l-37 -40 -157 0 -157 0 0 25 c0 22 4
25 39 25 22 0 43 -5 47 -12 5 -8 0 -9 -15 -5 -18 4 -20 3 -10 -9 17 -21 36
-17 43 8 4 18 8 20 18 10 18 -18 60 -15 112 8 29 12 48 15 52 9 9 -15 42 19
156 159 55 67 106 122 113 122 8 0 33 27 56 60 42 61 57 74 44 43z m-977 -283
c-1 -87 -2 -97 -8 -55 -5 28 -8 97 -8 155 1 87 2 97 8 55 5 -27 8 -97 8 -155z
m-235 38 c-4 -46 -8 -111 -8 -145 l0 -62 -50 -3 c-48 -3 -50 -4 -53 -35 -3
-32 -5 -33 -49 -33 l-46 0 6 68 c4 37 7 118 7 180 l0 112 101 0 100 0 -8 -82z
m617 7 c0 -3 -10 -16 -21 -28 -12 -12 -29 -39 -39 -61 -17 -36 -19 -37 -29
-18 -23 44 -7 79 49 101 29 11 40 13 40 6z m48 -9 c29 -15 77 -74 68 -83 -3
-3 -11 -1 -18 4 -33 26 -56 21 -88 -18 -37 -47 -50 -49 -50 -8 0 25 45 117 58
119 2 0 15 -6 30 -14z m-202 -25 c-22 -24 -14 -73 16 -103 11 -11 14 -18 7
-16 -19 6 -59 67 -59 89 0 19 25 49 42 49 6 0 3 -9 -6 -19z m44 -11 c-7 -14
-8 -32 -1 -55 11 -40 0 -46 -23 -13 -21 30 -20 65 2 77 27 16 34 13 22 -9z
m744 -42 c-9 -30 -9 -31 -33 -23 -26 8 -28 32 -3 38 38 10 44 8 36 -15z m737
-54 c5 -32 12 -66 15 -75 3 -13 -1 -15 -21 -11 -15 2 -25 0 -25 -7 0 -6 6 -11
13 -11 6 0 21 -7 31 -15 18 -13 7 -15 -105 -15 l-124 0 -1 47 c-1 39 -7 52
-34 76 -26 23 -37 27 -63 21 -42 -8 -54 -19 -69 -60 -9 -25 -18 -34 -35 -34
-27 0 -26 -2 -12 39 12 34 18 37 38 19 11 -11 13 -10 9 2 -2 8 -14 19 -26 25
-12 5 -22 13 -22 17 0 5 -24 5 -52 2 l-53 -6 27 21 c26 21 31 22 145 12 65 -6
167 -11 226 -11 88 0 109 3 114 15 8 23 12 15 24 -51z m-806 36 c3 -5 0 -10
-9 -10 -8 0 -23 -3 -33 -6 -16 -5 -16 -4 1 10 23 19 32 20 41 6z m1160 -28
l-30 -5 25 -7 c22 -7 21 -8 -11 -9 -51 -1 -92 -18 -184 -73 -83 -50 -95 -55
-95 -39 0 11 195 118 238 131 15 5 41 8 57 8 l30 -1 -30 -5z m-1330 -9 c31 -5
35 -8 20 -14 -20 -7 -20 -8 0 -8 11 0 31 6 45 14 15 9 53 14 97 15 60 0 85 -6
154 -35 82 -34 126 -44 114 -26 -3 6 3 14 12 20 16 9 16 10 -3 11 -12 0 -27 7
-34 15 -11 13 -4 15 56 15 l69 -1 -52 -48 c-29 -26 -53 -53 -53 -59 0 -15 13
-15 28 0 9 9 12 7 12 -10 0 -21 -5 -22 -70 -22 -40 0 -70 4 -70 10 0 6 15 11
33 11 31 2 30 2 -8 9 -42 7 -34 16 20 23 24 3 22 4 -10 6 -23 0 -45 5 -51 11
-11 11 -365 15 -409 4 l-30 -7 34 37 c38 39 37 39 96 29z m1412 1 c-3 -3 -12
-4 -19 -1 -8 3 -5 6 6 6 11 1 17 -2 13 -5z m-693 -26 c18 -29 30 -85 19 -91
-4 -2 -30 7 -58 20 -27 13 -42 21 -32 19 9 -3 17 -1 17 4 0 6 -8 10 -17 10
-15 0 -16 2 -3 10 13 8 13 10 -1 10 -9 0 -21 -10 -28 -22 -11 -23 -11 -23 -5
2 13 56 81 80 108 38z m901 1 c27 -5 16 -6 -35 -2 -41 3 -91 9 -110 13 -45 11
88 1 145 -11z m-1094 -25 c-11 -25 -17 -31 -19 -19 -3 13 23 55 33 55 2 0 -5
-16 -14 -36z m882 29 c-7 -2 -19 -2 -25 0 -7 3 -2 5 12 5 14 0 19 -2 13 -5z
m-28 -12 c29 -7 29 -7 -12 -14 -37 -6 -43 -11 -43 -32 0 -20 6 -25 35 -31 54
-10 52 -24 -4 -24 -43 0 -51 3 -51 18 0 22 -35 62 -55 62 -8 0 -47 -20 -87
-45 -75 -47 -88 -52 -88 -35 0 6 5 10 10 10 6 0 36 16 68 36 93 60 147 73 227
55z m209 -7 c47 -4 73 -10 65 -14 -16 -9 -159 5 -204 20 -27 9 -25 9 15 5 25
-2 81 -7 124 -11z m-334 -34 c13 -8 13 -10 -2 -10 -9 0 -20 5 -23 10 -8 13 5
13 25 0z m-1 -44 c18 -21 -1 -28 -69 -24 l-53 3 38 27 c40 28 57 27 84 -6z
m-949 -2 c0 -8 -9 -14 -20 -14 -17 0 -19 3 -8 19 13 21 28 19 28 -5z m379 0
c19 -8 32 -15 30 -17 -2 -1 -56 0 -119 3 -74 3 -110 8 -101 14 41 26 124 26
190 0z m1039 2 c23 -14 1 -26 -49 -26 -48 0 -63 11 -35 27 18 10 68 9 84 -1z
m-243 -16 c4 -6 -7 -10 -25 -10 -18 0 -29 4 -25 10 3 6 15 10 25 10 10 0 22
-4 25 -10z"/>
<path d="M2464 1820 c-26 -10 -64 -57 -64 -78 0 -13 3 -12 20 3 20 19 50 14
50 -7 0 -8 -7 -24 -16 -36 -8 -12 -10 -22 -5 -22 16 0 43 47 39 67 -2 10 -14
23 -27 30 l-25 12 27 12 c21 9 30 9 42 -1 18 -15 21 0 3 18 -14 14 -15 14 -44
2z"/>
<path d="M2087 1824 c-10 -10 -8 -67 3 -84 15 -24 32 2 28 45 -3 37 -16 53
-31 39z"/>
<path d="M1736 1795 c-7 -19 3 -73 15 -81 14 -8 22 23 15 61 -7 37 -20 45 -30
20z"/>
<path d="M1860 1716 c0 -2 8 -10 18 -17 15 -13 16 -12 3 4 -13 16 -21 21 -21
13z"/>
<path d="M2050 1044 c0 -3 5 -14 10 -25 11 -19 60 -27 60 -9 0 5 -6 7 -14 4
-9 -3 -20 3 -28 15 -12 20 -28 28 -28 15z"/>
<path d="M2455 980 c-8 -13 5 -13 25 0 13 8 13 10 -2 10 -9 0 -20 -4 -23 -10z"/>
<path d="M2463 963 c-7 -3 -13 -9 -13 -15 0 -6 7 -8 15 -5 8 4 17 2 21 -4 4
-6 11 -6 20 2 21 17 17 31 -5 19 -11 -5 -21 -6 -23 -1 -2 4 -9 6 -15 4z"/>
<path d="M1575 460 c-18 -8 -18 -9 -2 -9 10 -1 15 -5 12 -11 -9 -15 4 -12 21
4 26 26 11 34 -31 16z"/>
<path d="M825 2165 c-22 -8 -58 -19 -80 -24 -22 -6 -49 -17 -60 -25 -14 -11
-4 -9 33 4 29 11 63 20 75 20 13 0 28 5 34 11 6 6 47 15 90 19 l78 7 -65 1
c-36 0 -83 -6 -105 -13z"/>
<path d="M1125 2110 c-22 -5 -57 -12 -77 -15 -21 -3 -38 -9 -38 -14 0 -4 38 0
84 9 83 17 189 15 241 -4 11 -4 8 0 -7 8 -32 19 -149 28 -203 16z"/>
<path d="M2794 2029 c-16 -5 -41 -20 -54 -34 -30 -32 -17 -32 22 0 23 19 41
25 81 26 38 0 47 3 32 9 -25 11 -42 11 -81 -1z"/>
<path d="M3255 2023 c-41 -10 -33 -18 14 -15 27 2 60 -2 72 -8 21 -11 22 -11
9 3 -17 17 -65 27 -95 20z"/>
<path d="M1340 2003 c0 -5 22 -8 49 -8 27 0 47 3 44 7 -6 10 -93 10 -93 1z"/>
<path d="M3014 1965 c-17 -13 -15 -13 18 -3 29 9 45 8 65 -1 26 -10 27 -10 9
4 -25 19 -66 19 -92 0z"/>
<path d="M1063 1922 c-6 -4 11 -7 37 -7 26 0 43 3 37 7 -7 4 -23 8 -37 8 -14
0 -30 -4 -37 -8z"/>
<path d="M2750 1815 c-16 -19 -1 -19 24 0 16 12 17 15 4 15 -8 0 -21 -7 -28
-15z"/>
<path d="M3014 1805 c-4 -8 -16 -15 -29 -15 -12 0 -36 -3 -52 -6 l-30 -6 -7
-184 c-7 -191 -2 -225 32 -223 15 1 15 2 0 6 -9 2 -19 11 -22 20 -4 8 -3 95 0
193 l7 178 30 6 c16 3 50 6 74 6 37 0 44 3 39 16 -3 9 -6 18 -6 20 0 11 -31 2
-36 -11z m26 -5 c0 -5 -5 -10 -11 -10 -5 0 -7 5 -4 10 3 6 8 10 11 10 2 0 4
-4 4 -10z"/>
<path d="M3093 1710 c0 -41 2 -58 4 -37 2 20 2 54 0 75 -2 20 -4 3 -4 -38z"/>
<path d="M2948 1743 c12 -2 32 -2 45 0 12 2 2 4 -23 4 -25 0 -35 -2 -22 -4z"/>
<path d="M268 1733 c7 -3 16 -2 19 1 4 3 -2 6 -13 5 -11 0 -14 -3 -6 -6z"/>
<path d="M2978 1713 c12 -2 32 -2 45 0 12 2 2 4 -23 4 -25 0 -35 -2 -22 -4z"/>
<path d="M2965 1645 c-29 -13 -58 -69 -30 -59 7 3 11 13 8 23 -6 23 71 51 89
33 7 -7 17 -12 23 -12 5 0 1 7 -9 15 -24 18 -41 18 -81 0z"/>
<path d="M2996 1615 c-11 -8 -15 -15 -9 -15 6 0 16 7 23 15 16 19 11 19 -14 0z"/>
<path d="M3078 1543 c5 -119 9 -131 10 -30 1 53 -1 97 -5 97 -5 0 -7 -30 -5
-67z"/>
<path d="M3256 1585 c-3 -8 -24 -18 -46 -21 -22 -4 -43 -10 -45 -14 -3 -4 12
-4 33 1 20 5 69 9 108 9 l71 0 6 -105 c3 -58 9 -111 14 -119 8 -15 6 198 -2
222 -3 7 -22 12 -50 12 -31 0 -47 5 -51 15 -8 19 -30 19 -38 0z m24 -5 c0 -5
-5 -10 -11 -10 -5 0 -7 5 -4 10 3 6 8 10 11 10 2 0 4 -4 4 -10z"/>
<path d="M3266 1525 c-3 -8 -1 -15 4 -15 6 0 10 7 10 15 0 8 -2 15 -4 15 -2 0
-6 -7 -10 -15z"/>
<path d="M3226 1515 c4 -8 10 -15 15 -15 5 0 9 7 9 15 0 8 -7 15 -15 15 -9 0
-12 -6 -9 -15z"/>
<path d="M3154 1425 c0 -55 1 -76 3 -47 2 29 2 74 0 100 -2 26 -3 2 -3 -53z"/>
<path d="M3290 1510 c0 -5 4 -10 9 -10 6 0 13 5 16 10 3 6 -1 10 -9 10 -9 0
-16 -4 -16 -10z"/>
<path d="M2973 1483 c15 -2 37 -2 50 0 12 2 0 4 -28 4 -27 0 -38 -2 -22 -4z"/>
<path d="M3201 1476 c7 -8 118 -10 126 -3 3 4 -24 7 -62 7 -38 0 -66 -2 -64
-4z"/>
<path d="M3008 1463 c6 -2 18 -2 25 0 6 3 1 5 -13 5 -14 0 -19 -2 -12 -5z"/>
<path d="M2948 1453 c6 -2 18 -2 25 0 6 3 1 5 -13 5 -14 0 -19 -2 -12 -5z"/>
<path d="M3055 1440 c3 -5 8 -10 11 -10 2 0 4 5 4 10 0 6 -5 10 -11 10 -5 0
-7 -4 -4 -10z"/>
<path d="M3003 1433 c9 -2 23 -2 30 0 6 3 -1 5 -18 5 -16 0 -22 -2 -12 -5z"/>
<path d="M3065 1400 l-30 -8 27 -1 c15 0 30 4 33 9 3 6 5 9 3 9 -2 -1 -16 -5
-33 -9z"/>
<path d="M3268 1403 c12 -2 32 -2 45 0 12 2 2 4 -23 4 -25 0 -35 -2 -22 -4z"/>
<path d="M3198 1393 c7 -3 16 -2 19 1 4 3 -2 6 -13 5 -11 0 -14 -3 -6 -6z"/>
<path d="M2968 1383 c12 -2 32 -2 45 0 12 2 2 4 -23 4 -25 0 -35 -2 -22 -4z"/>
<path d="M3233 1363 c9 -2 23 -2 30 0 6 3 -1 5 -18 5 -16 0 -22 -2 -12 -5z"/>
<path d="M3258 1343 c12 -2 30 -2 40 0 9 3 -1 5 -23 4 -22 0 -30 -2 -17 -4z"/>
<path d="M3198 1313 c-21 -2 -38 -8 -38 -13 0 -4 8 -6 18 -4 9 3 58 8 107 13
90 8 90 8 20 8 -38 0 -87 -2 -107 -4z"/>
<path d="M3311 1189 c-13 -5 -21 -12 -18 -15 3 -3 15 0 28 6 12 7 39 10 62 7
27 -4 36 -2 26 4 -18 11 -67 11 -98 -2z"/>
<path d="M3161 1109 c-13 -5 -22 -12 -19 -14 3 -3 17 -1 32 4 14 6 34 8 43 5
15 -5 16 -4 3 5 -18 13 -27 13 -59 0z"/>
<path d="M3360 939 c-104 -20 -191 -42 -187 -46 5 -4 279 46 286 53 7 7 -50 3
-99 -7z"/>
<path d="M3138 883 c7 -3 16 -2 19 1 4 3 -2 6 -13 5 -11 0 -14 -3 -6 -6z"/>
<path d="M3421 864 c0 -11 3 -14 6 -6 3 7 2 16 -1 19 -3 4 -6 -2 -5 -13z"/>
<path d="M3156 849 c2 -4 -2 -10 -8 -13 -17 -8 52 5 76 14 12 4 2 7 -27 7 -25
0 -44 -4 -41 -8z"/>
<path d="M185 843 c-16 -3 -35 -9 -42 -15 -7 -5 -17 -6 -24 -2 -12 7 -6 -173
12 -306 7 -56 7 -51 3 35 -2 55 -7 134 -10 175 -4 57 -3 71 6 58 9 -15 26 -18
103 -17 61 0 85 3 72 9 -19 8 -19 9 3 9 12 1 22 5 22 10 0 5 -10 12 -22 14
-17 3 -14 5 9 6 24 1 31 5 27 16 -6 15 -83 19 -159 8z m72 -49 c-3 -3 -12 -4
-19 -1 -8 3 -5 6 6 6 11 1 17 -2 13 -5z"/>
<path d="M3411 824 c0 -11 3 -14 6 -6 3 7 2 16 -1 19 -3 4 -6 -2 -5 -13z"/>
<path d="M3258 823 c7 -3 16 -2 19 1 4 3 -2 6 -13 5 -11 0 -14 -3 -6 -6z"/>
<path d="M3175 801 c-27 -10 -56 -16 -62 -13 -7 2 -13 -1 -13 -7 0 -6 3 -11 8
-11 14 0 102 29 120 39 25 15 3 12 -53 -8z"/>
<path d="M3263 790 c-32 -13 -29 -21 5 -10 56 18 58 18 37 19 -11 0 -30 -4
-42 -9z"/>
<path d="M3401 784 c0 -11 3 -14 6 -6 3 7 2 16 -1 19 -3 4 -6 -2 -5 -13z"/>
<path d="M3265 759 c-110 -11 -128 -16 -72 -18 51 -1 64 -17 20 -24 -16 -2 -5
-4 22 -4 28 -1 42 1 32 4 -33 8 -11 28 34 31 24 2 48 7 54 13 5 6 5 9 0 8 -6
-1 -46 -5 -90 -10z"/>
<path d="M3391 744 c0 -11 3 -14 6 -6 3 7 2 16 -1 19 -3 4 -6 -2 -5 -13z"/>
<path d="M3108 733 c6 -2 18 -2 25 0 6 3 1 5 -13 5 -14 0 -19 -2 -12 -5z"/>
<path d="M3376 684 c-4 -20 -5 -38 -3 -40 3 -3 8 11 11 32 4 20 5 38 3 40 -3
3 -8 -11 -11 -32z"/>
<path d="M3143 703 c9 -2 23 -2 30 0 6 3 -1 5 -18 5 -16 0 -22 -2 -12 -5z"/>
<path d="M3232 669 c11 -6 29 -6 50 0 32 9 31 9 -17 10 -38 0 -46 -2 -33 -10z"/>
<path d="M3143 663 c15 -2 37 -2 50 0 12 2 0 4 -28 4 -27 0 -38 -2 -22 -4z"/>
<path d="M3082 631 c-6 -17 -9 -31 -6 -31 7 0 25 52 20 57 -2 2 -8 -10 -14
-26z"/>
<path d="M3235 639 c-11 -16 -1 -19 13 -3 7 8 8 14 3 14 -5 0 -13 -5 -16 -11z"/>
<path d="M3146 589 c-38 -5 -83 -14 -100 -19 l-31 -10 35 5 c19 2 75 9 124 15
49 5 91 12 94 15 7 7 -37 4 -122 -6z"/>
<path d="M3138 543 c17 -2 47 -2 65 0 17 2 3 4 -33 4 -36 0 -50 -2 -32 -4z"/>
</g>
</svg>
